<svg xmlns="http://www.w3.org/2000/svg" width="84" viewBox="0 0 84 84" height="84" version="1.0"><defs><clipPath id="a"><path d="M 6 12.6875 L 71 12.6875 L 71 54 L 6 54 Z M 6 12.6875"/></clipPath><clipPath id="b"><path d="M 1.5 22 L 82.5 22 L 82.5 75.6875 L 1.5 75.6875 Z M 1.5 22"/></clipPath></defs><g clip-path="url(#a)"><path fill="#1A1A1A" d="M 69.941406 24.609375 L 43.929688 15.050781 C 43.929688 14.753906 43.875 14.464844 43.757812 14.1875 C 43.644531 13.90625 43.480469 13.664062 43.269531 13.449219 C 43.058594 13.238281 42.8125 13.074219 42.539062 12.960938 C 42.261719 12.84375 41.972656 12.785156 41.671875 12.785156 C 41.375 12.785156 41.085938 12.84375 40.808594 12.960938 C 40.53125 13.074219 40.289062 13.238281 40.078125 13.449219 C 39.867188 13.664062 39.703125 13.90625 39.589844 14.1875 C 39.472656 14.464844 39.417969 14.753906 39.417969 15.050781 C 39.398438 15.628906 39.597656 16.125 40.003906 16.53125 L 6.828125 52.683594 C 6.710938 52.804688 6.660156 52.949219 6.667969 53.113281 C 6.679688 53.28125 6.75 53.417969 6.878906 53.523438 C 6.988281 53.625 7.121094 53.675781 7.269531 53.671875 C 7.449219 53.679688 7.597656 53.613281 7.710938 53.472656 L 41.035156 17.171875 C 41.261719 17.230469 41.488281 17.265625 41.722656 17.269531 C 42.113281 17.269531 42.480469 17.175781 42.820312 16.980469 C 43.164062 16.789062 43.433594 16.523438 43.636719 16.1875 L 69.550781 25.742188 C 69.703125 25.789062 69.855469 25.777344 70.003906 25.714844 C 70.152344 25.648438 70.261719 25.542969 70.335938 25.398438 C 70.382812 25.234375 70.371094 25.078125 70.292969 24.925781 C 70.21875 24.773438 70.101562 24.667969 69.941406 24.609375 Z M 69.941406 24.609375"/></g><g clip-path="url(#b)"><path fill="#1A1A1A" d="M 81.867188 42.980469 L 73.523438 23.722656 C 73.425781 23.574219 73.328125 23.378906 73.230469 23.230469 C 73.089844 23.011719 72.914062 22.828125 72.707031 22.675781 C 72.5 22.519531 72.273438 22.40625 72.027344 22.335938 C 71.777344 22.265625 71.527344 22.238281 71.269531 22.253906 C 71.011719 22.273438 70.765625 22.335938 70.53125 22.441406 L 4.226562 51.453125 C 4.070312 51.515625 3.921875 51.597656 3.785156 51.699219 L 3.050781 52.042969 C 2.773438 52.164062 2.527344 52.332031 2.320312 52.550781 C 2.109375 52.769531 1.949219 53.019531 1.835938 53.300781 C 1.726562 53.582031 1.675781 53.875 1.679688 54.179688 C 1.6875 54.480469 1.75 54.773438 1.871094 55.050781 L 10.214844 74.308594 C 10.476562 74.886719 10.902344 75.300781 11.492188 75.539062 C 11.761719 75.636719 12.039062 75.6875 12.324219 75.6875 C 12.652344 75.695312 12.960938 75.628906 13.257812 75.492188 L 80.738281 45.984375 C 81.007812 45.855469 81.242188 45.683594 81.445312 45.460938 C 81.644531 45.242188 81.800781 44.992188 81.90625 44.710938 C 82.007812 44.429688 82.058594 44.140625 82.054688 43.84375 C 82.046875 43.542969 81.984375 43.257812 81.867188 42.980469 Z M 81.867188 42.980469"/></g><path fill="#FFF" d="M 4.667969 52.585938 C 4.414062 52.691406 4.234375 52.871094 4.128906 53.128906 C 4.027344 53.390625 4.027344 53.652344 4.128906 53.917969 L 11.882812 71.746094 C 12.003906 71.996094 12.191406 72.167969 12.441406 72.273438 C 12.695312 72.375 12.953125 72.382812 13.207031 72.289062 L 79.511719 43.277344 C 79.769531 43.171875 79.949219 42.992188 80.050781 42.734375 C 80.152344 42.472656 80.152344 42.210938 80.050781 41.945312 L 72.296875 24.117188 C 72.21875 23.929688 72.09375 23.78125 71.925781 23.671875 C 71.753906 23.566406 71.566406 23.515625 71.367188 23.523438 C 71.226562 23.527344 71.097656 23.5625 70.972656 23.625 Z M 4.667969 52.585938"/><path fill="#1A1A1A" d="M 14.09375 65.6875 C 13.945312 65.640625 13.847656 65.589844 13.796875 65.441406 L 8.792969 57.710938 L 8.742188 57.660156 C 8.6875 57.578125 8.6875 57.496094 8.742188 57.414062 C 8.792969 57.316406 8.839844 57.265625 8.890625 57.265625 L 10.609375 56.527344 C 10.699219 56.472656 10.792969 56.457031 10.894531 56.476562 C 11 56.496094 11.082031 56.542969 11.148438 56.625 L 14.09375 61.207031 L 13.75 57.957031 C 13.71875 57.839844 13.730469 57.730469 13.789062 57.625 C 13.84375 57.519531 13.929688 57.449219 14.042969 57.414062 L 15.023438 56.96875 C 15.128906 56.921875 15.234375 56.910156 15.34375 56.941406 C 15.457031 56.96875 15.546875 57.027344 15.613281 57.117188 L 17.722656 59.582031 L 16.398438 54.3125 C 16.351562 54.210938 16.398438 54.113281 16.398438 54.015625 C 16.472656 53.9375 16.550781 53.871094 16.644531 53.816406 L 18.363281 53.078125 C 18.445312 53.023438 18.527344 53.023438 18.605469 53.078125 C 18.707031 53.128906 18.753906 53.179688 18.753906 53.226562 L 18.804688 53.324219 L 21.011719 62.242188 C 21.046875 62.378906 21.03125 62.511719 20.964844 62.636719 C 20.914062 62.78125 20.816406 62.832031 20.667969 62.929688 L 19.34375 63.523438 C 19.214844 63.5625 19.085938 63.578125 18.949219 63.570312 C 18.863281 63.53125 18.78125 63.484375 18.707031 63.421875 L 15.859375 60.371094 L 16.152344 64.554688 C 16.160156 64.660156 16.144531 64.757812 16.105469 64.851562 C 16.039062 64.972656 15.941406 65.054688 15.808594 65.097656 L 14.535156 65.6875 C 14.335938 65.6875 14.191406 65.738281 14.09375 65.6875 Z M 14.09375 65.6875"/><path fill="#1A1A1A" d="M 23.90625 61.402344 C 23.816406 61.363281 23.75 61.296875 23.710938 61.207031 L 20.03125 52.785156 C 19.976562 52.683594 19.976562 52.585938 20.03125 52.488281 C 20.070312 52.398438 20.136719 52.332031 20.226562 52.292969 L 26.363281 49.632812 C 26.460938 49.578125 26.558594 49.578125 26.65625 49.632812 C 26.746094 49.671875 26.8125 49.738281 26.851562 49.828125 L 27.390625 51.109375 C 27.445312 51.207031 27.445312 51.304688 27.390625 51.40625 C 27.351562 51.496094 27.285156 51.5625 27.195312 51.601562 L 23.121094 53.375 L 23.859375 55.050781 L 27.6875 53.375 C 27.785156 53.324219 27.882812 53.324219 27.980469 53.375 C 28.070312 53.414062 28.136719 53.480469 28.175781 53.570312 L 28.667969 54.753906 C 28.71875 54.851562 28.71875 54.949219 28.667969 55.050781 C 28.628906 55.140625 28.5625 55.207031 28.472656 55.246094 L 24.644531 56.921875 L 25.378906 58.597656 L 29.601562 56.773438 C 29.699219 56.722656 29.796875 56.722656 29.894531 56.773438 C 29.984375 56.8125 30.050781 56.878906 30.089844 56.96875 L 30.632812 58.25 C 30.683594 58.351562 30.683594 58.449219 30.632812 58.546875 C 30.589844 58.636719 30.527344 58.703125 30.433594 58.742188 L 24.203125 61.453125 C 24.054688 61.453125 23.957031 61.453125 23.90625 61.402344 Z M 23.90625 61.402344"/><path fill="#1A1A1A" d="M 32.203125 57.757812 C 32.109375 57.71875 32.046875 57.652344 32.003906 57.5625 L 28.324219 49.089844 C 28.273438 48.992188 28.273438 48.890625 28.324219 48.792969 C 28.363281 48.703125 28.429688 48.636719 28.519531 48.597656 L 30.335938 47.808594 C 30.433594 47.757812 30.53125 47.757812 30.632812 47.808594 C 30.722656 47.847656 30.789062 47.914062 30.828125 48.003906 L 33.773438 54.753906 L 37.648438 53.03125 C 37.746094 52.976562 37.84375 52.976562 37.945312 53.03125 C 38.035156 53.070312 38.101562 53.136719 38.140625 53.226562 L 38.730469 54.605469 C 38.78125 54.703125 38.78125 54.804688 38.730469 54.902344 C 38.6875 54.992188 38.625 55.058594 38.53125 55.097656 L 32.496094 57.757812 C 32.398438 57.8125 32.300781 57.8125 32.203125 57.757812 Z M 32.203125 57.757812"/><path fill="#1A1A1A" d="M 40.347656 53.425781 C 39.835938 53.257812 39.378906 52.988281 38.984375 52.617188 C 38.589844 52.246094 38.292969 51.808594 38.089844 51.304688 C 37.992188 51.058594 37.796875 50.714844 37.601562 50.171875 C 37.355469 49.632812 37.207031 49.238281 37.109375 48.992188 C 36.886719 48.496094 36.777344 47.980469 36.777344 47.4375 C 36.777344 46.898438 36.886719 46.382812 37.109375 45.886719 C 37.65625 44.828125 38.488281 44.105469 39.613281 43.71875 C 40.316406 43.410156 41.054688 43.230469 41.820312 43.179688 C 42.496094 43.160156 43.136719 43.308594 43.734375 43.621094 C 44.304688 43.96875 44.730469 44.445312 45.011719 45.050781 C 45.066406 45.132812 45.066406 45.214844 45.011719 45.296875 C 44.960938 45.394531 44.914062 45.445312 44.863281 45.445312 L 43 46.234375 C 42.90625 46.273438 42.804688 46.289062 42.703125 46.28125 C 42.605469 46.28125 42.558594 46.183594 42.457031 46.085938 C 42.234375 45.746094 41.921875 45.535156 41.527344 45.445312 C 41.144531 45.390625 40.785156 45.457031 40.445312 45.640625 C 39.464844 46.085938 39.21875 46.824219 39.660156 47.957031 C 39.757812 48.203125 39.90625 48.546875 40.101562 49.039062 C 40.300781 49.53125 40.496094 49.878906 40.59375 50.125 C 41.085938 51.207031 41.871094 51.503906 42.800781 51.109375 C 43.160156 50.960938 43.453125 50.730469 43.6875 50.417969 C 43.902344 50.0625 43.949219 49.6875 43.832031 49.285156 C 43.820312 49.167969 43.835938 49.050781 43.882812 48.941406 C 43.945312 48.851562 44.027344 48.785156 44.128906 48.746094 L 45.992188 47.957031 C 46.074219 47.902344 46.15625 47.902344 46.238281 47.957031 C 46.335938 48.003906 46.386719 48.054688 46.386719 48.105469 C 46.648438 48.722656 46.714844 49.363281 46.582031 50.023438 C 46.417969 50.695312 46.089844 51.269531 45.601562 51.75 C 45.054688 52.316406 44.414062 52.742188 43.6875 53.03125 C 42.410156 53.570312 41.332031 53.71875 40.347656 53.425781 Z M 40.347656 53.425781"/><path fill="#1A1A1A" d="M 49.527344 49.386719 C 49.003906 49.214844 48.546875 48.9375 48.152344 48.558594 C 47.753906 48.179688 47.460938 47.730469 47.269531 47.21875 C 47.171875 46.972656 46.972656 46.625 46.777344 46.085938 C 46.582031 45.59375 46.386719 45.199219 46.285156 44.953125 C 45.84375 43.769531 45.796875 42.734375 46.285156 41.800781 C 46.839844 40.742188 47.675781 40.003906 48.789062 39.582031 C 49.84375 39.046875 50.9375 38.933594 52.078125 39.238281 C 52.601562 39.414062 53.0625 39.691406 53.464844 40.070312 C 53.867188 40.449219 54.175781 40.894531 54.382812 41.40625 C 54.628906 41.898438 54.777344 42.292969 54.925781 42.539062 C 55.023438 42.785156 55.167969 43.179688 55.367188 43.671875 C 55.59375 44.167969 55.714844 44.695312 55.722656 45.242188 C 55.730469 45.789062 55.628906 46.316406 55.414062 46.824219 C 54.84375 47.851562 54.007812 48.574219 52.914062 48.992188 C 51.832031 49.558594 50.703125 49.6875 49.527344 49.386719 Z M 52.863281 46.183594 C 53.003906 45.695312 52.96875 45.21875 52.765625 44.753906 C 52.570312 44.261719 52.421875 43.867188 52.324219 43.671875 C 52.226562 43.472656 52.078125 43.128906 51.832031 42.636719 C 51.648438 42.144531 51.324219 41.78125 50.851562 41.554688 C 50.640625 41.484375 50.425781 41.453125 50.207031 41.460938 C 49.984375 41.46875 49.773438 41.515625 49.570312 41.601562 C 49.367188 41.6875 49.1875 41.808594 49.027344 41.960938 C 48.867188 42.113281 48.738281 42.289062 48.644531 42.488281 C 48.503906 42.976562 48.535156 43.453125 48.742188 43.917969 C 48.839844 44.164062 48.984375 44.507812 49.183594 45 C 49.320312 45.375 49.484375 45.734375 49.671875 46.085938 C 49.855469 46.578125 50.183594 46.9375 50.65625 47.167969 C 51.085938 47.332031 51.511719 47.3125 51.929688 47.121094 C 52.371094 46.9375 52.679688 46.625 52.863281 46.183594 Z M 52.863281 46.183594"/><path fill="#1A1A1A" d="M 58.3125 46.378906 C 58.21875 46.339844 58.15625 46.273438 58.113281 46.183594 L 54.433594 37.761719 C 54.382812 37.660156 54.382812 37.5625 54.433594 37.464844 C 54.472656 37.375 54.539062 37.308594 54.628906 37.269531 L 56.101562 36.628906 C 56.320312 36.527344 56.515625 36.5625 56.691406 36.726562 L 60.667969 39.78125 L 61.15625 34.804688 C 61.160156 34.5625 61.277344 34.398438 61.5 34.3125 L 62.972656 33.671875 C 63.070312 33.621094 63.167969 33.621094 63.269531 33.671875 C 63.359375 33.710938 63.425781 33.777344 63.464844 33.867188 L 67.144531 42.292969 C 67.195312 42.390625 67.195312 42.488281 67.144531 42.585938 C 67.105469 42.679688 67.039062 42.746094 66.949219 42.785156 L 65.28125 43.425781 C 65.199219 43.480469 65.117188 43.480469 65.035156 43.425781 C 64.945312 43.382812 64.878906 43.320312 64.839844 43.226562 L 62.777344 38.5 L 62.484375 41.699219 C 62.457031 41.929688 62.34375 42.09375 62.140625 42.195312 L 61.453125 42.488281 C 61.253906 42.585938 61.109375 42.539062 60.863281 42.390625 L 58.359375 40.421875 L 60.421875 45.148438 C 60.472656 45.246094 60.472656 45.347656 60.421875 45.445312 C 60.382812 45.535156 60.316406 45.601562 60.226562 45.640625 L 58.605469 46.378906 Z M 58.3125 46.378906"/><path fill="#1A1A1A" d="M 69.109375 41.652344 C 69.015625 41.613281 68.953125 41.546875 68.910156 41.453125 L 65.230469 33.03125 C 65.179688 32.933594 65.179688 32.835938 65.230469 32.734375 C 65.269531 32.644531 65.335938 32.578125 65.425781 32.539062 L 71.5625 29.878906 C 71.660156 29.828125 71.757812 29.828125 71.855469 29.878906 C 71.945312 29.917969 72.011719 29.984375 72.050781 30.078125 L 72.59375 31.355469 C 72.644531 31.457031 72.644531 31.554688 72.59375 31.652344 C 72.550781 31.742188 72.488281 31.808594 72.394531 31.847656 L 68.324219 33.621094 L 69.058594 35.296875 L 72.886719 33.621094 C 72.984375 33.570312 73.082031 33.570312 73.179688 33.621094 C 73.273438 33.664062 73.335938 33.730469 73.378906 33.820312 L 73.867188 35 C 73.921875 35.101562 73.921875 35.199219 73.867188 35.296875 C 73.828125 35.386719 73.761719 35.453125 73.671875 35.496094 L 69.84375 37.167969 L 70.582031 38.84375 L 74.800781 37.019531 C 74.898438 36.96875 74.996094 36.96875 75.09375 37.019531 C 75.1875 37.0625 75.25 37.128906 75.292969 37.21875 L 75.832031 38.5 C 75.882812 38.597656 75.882812 38.695312 75.832031 38.792969 C 75.792969 38.886719 75.726562 38.953125 75.636719 38.992188 L 69.402344 41.699219 C 69.300781 41.714844 69.203125 41.695312 69.109375 41.652344 Z M 69.109375 41.652344"/></svg>